<?xml version="1.0" encoding="iso-8859-1"?>
<!-- Generator: Adobe Illustrator 19.0.0, SVG Export Plug-In . SVG Version: 6.00 Build 0)  -->
<svg version="1.1" id="Capa_1" xmlns="http://www.w3.org/2000/svg" xmlns:xlink="http://www.w3.org/1999/xlink" x="0px" y="0px"
	 viewBox="0 0 496 496" style="enable-background:new 0 0 496 496;" xml:space="preserve">
<g>
	<g>
		<rect x="32" y="448" width="16" height="16"/>
	</g>
</g>
<g>
	<g>
		<rect x="32" y="32" width="16" height="16"/>
	</g>
</g>
<g>
	<g>
		<rect x="192" y="32" width="16" height="16"/>
	</g>
</g>
<g>
	<g>
		<path d="M160,240v-8c0-13.6-10.4-24-24-24c-13.6,0-24,10.4-24,24v32c0,4.8-3.2,8-8,8s-8-3.2-8-8v-48H80v24H64v16h16v8
			c0,13.6,10.4,24,24,24s24-10.4,24-24v-32c0-4.8,3.2-8,8-8s8,3.2,8,8v48h16v-24h16v-16H160z"/>
	</g>
</g>
<g>
	<g>
		<path d="M248,376h-32c-4.8,0-8-3.2-8-8s3.2-8,8-8h48v-16h-24v-16h-16v16h-8c-13.6,0-24,10.4-24,24c0,13.6,10.4,24,24,24h32
			c4.8,0,8,3.2,8,8s-3.2,8-8,8h-48v16h24v16h16v-16h8c13.6,0,24-10.4,24-24C272,386.4,261.6,376,248,376z"/>
	</g>
</g>
<g>
	<g>
		<path d="M120,80c-17.6,0-32,14.4-32,32s14.4,32,32,32c17.6,0,32-14.4,32-32C152,94.4,137.6,80,120,80z M120,128
			c-8.8,0-16-7.2-16-16s7.2-16,16-16s16,7.2,16,16S128.8,128,120,128z"/>
	</g>
</g>
<g>
	<g>
		<path d="M152,384h16c0-35.2,28.8-64,64-64v-16C188,304,152,340,152,384z"/>
	</g>
</g>
<g>
	<g>
		<path d="M296,384c0,35.2-28.8,64-64,64v16c44,0,80-36,80-80H296z"/>
	</g>
</g>
<g>
	<g>
		<path d="M493.6,194.4l-48-48c-1.6-1.6-3.2-2.4-5.6-2.4H264c-4.8,0-8,3.2-8,8v122.4c-5.6-0.8-10.4-1.6-16-2.4V8c0-4.8-3.2-8-8-8H8
			C3.2,0,0,3.2,0,8v480c0,4.8,3.2,8,8,8h224c8.8,0,17.6-0.8,25.6-3.2c1.6,1.6,4,3.2,6.4,3.2h224c4.8,0,8-3.2,8-8V200
			C496,197.6,495.2,196,493.6,194.4z M448,171.2l20.8,20.8H448V171.2z M272,160h160v16H272V160z M16,480V16h208v256.8
			c-5.6,0-10.4,0.8-16,2.4V72c0-4.8-3.2-8-8-8c-13.6,0-24-10.4-24-24c0-4.8-3.2-8-8-8H72c-4.8,0-8,3.2-8,8c0,13.6-10.4,24-24,24
			c-4.8,0-8,3.2-8,8v352c0,4.8,3.2,8,8,8c13.6,0,24,10.4,24,24c0,4.8,3.2,8,8,8h81.6c6.4,6.4,13.6,11.2,20.8,16H16z M121.6,400
			c-0.8,0-0.8,0-1.6,0c-8.8,0-16-7.2-16-16s7.2-16,16-16c0.8,0,0.8,0,1.6,0C119.2,378.4,119.2,389.6,121.6,400z M88,378.4
			c-2.4,17.6,8.8,33.6,26.4,36.8c3.2,0.8,6.4,0.8,10.4,0c3.2,11.2,8.8,22.4,15.2,32.8H79.2C76,432,64,420,48,416.8V79.2
			C64,76,76,64,79.2,48h81.6C164,64,176,76,192,79.2v200c-32.8,12.8-57.6,40-67.2,72.8C107.2,349.6,91.2,360.8,88,378.4z M232,480
			c-52.8,0-96-43.2-96-96s43.2-96,96-96s96,43.2,96,96S284.8,480,232,480z M304,298.4V288h16v16h-9.6C308,302.4,306.4,300,304,298.4
			z M480,480H289.6c7.2-4.8,14.4-9.6,20.8-16H480V480z M480,448H324c27.2-38.4,27.2-89.6,0-128h4c4.8,0,8-3.2,8-8v-32
			c0-4.8-3.2-8-8-8h-32c-4.8,0-8,3.2-8,8v7.2c-4.8-3.2-10.4-5.6-16-8V192h160v8c0,4.8,3.2,8,8,8h40V448z"/>
	</g>
</g>
<g>
	<g>
		<path d="M328,208h-32c-4.8,0-8,3.2-8,8v32c0,4.8,3.2,8,8,8h32c4.8,0,8-3.2,8-8v-32C336,211.2,332.8,208,328,208z M320,240h-16v-16
			h16V240z"/>
	</g>
</g>
<g>
	<g>
		<rect x="352" y="240" width="112" height="16"/>
	</g>
</g>
<g>
	<g>
		<rect x="352" y="304" width="112" height="16"/>
	</g>
</g>
<g>
	<g>
		<rect x="352" y="368" width="112" height="16"/>
	</g>
</g>
<g>
</g>
<g>
</g>
<g>
</g>
<g>
</g>
<g>
</g>
<g>
</g>
<g>
</g>
<g>
</g>
<g>
</g>
<g>
</g>
<g>
</g>
<g>
</g>
<g>
</g>
<g>
</g>
<g>
</g>
</svg>
