<svg xmlns="http://www.w3.org/2000/svg" viewBox="0 0 29.54 32.4"><defs><style>.cls-1{opacity:0.54;}.cls-2{fill:#ff5722;}</style></defs><title>icon</title><g id="Layer_25" data-name="Layer 25"><path class="cls-2" d="M6.28,1.28A1.92,1.92,0,0,0,4.47,0H1.93A1.93,1.93,0,0,0,0,1.93V30.47A1.93,1.93,0,0,0,1.93,32.4H4.47A1.93,1.93,0,0,0,6.4,30.47V14.3H9.51a3.36,3.36,0,0,0,3.36-3.36V4.64A3.36,3.36,0,0,0,9.51,1.28ZM5.11,30.47a.64.64,0,0,1-.63.63H1.93a.64.64,0,0,1-.63-.63V1.93a.64.64,0,0,1,.63-.63H4.47a.64.64,0,0,1,.63.63V30.47ZM11.57,4.64v6.3A2.07,2.07,0,0,1,9.51,13H6.4V2.57H9.51A2.07,2.07,0,0,1,11.57,4.64Z"/><path class="cls-2" d="M29.37,32.19a.65.65,0,0,0,.16-.5L27.11,7a.65.65,0,0,0-.64-.58H25.14V1.93a.65.65,0,0,0-.65-.65h-4a.65.65,0,0,0-.65.65V6.46H18.63A.65.65,0,0,0,18,7l-2.1,20.63a.6.6,0,0,0-.07.69l-.34,3.32a.65.65,0,0,0,.64.71H28.89A.65.65,0,0,0,29.37,32.19ZM18.55,14.3h8l1.29,13.12H17.21ZM21.17,2.57h2.68V6.46H21.17Zm-.65,5.18h5.36L26.4,13H18.68l.53-5.25ZM16.84,31.1l.24-2.39H27.94l.24,2.39Z"/></g></svg>