<svg xmlns="http://www.w3.org/2000/svg" viewBox="0 0 29.05 34.72"><defs><style>.cls-1{opacity:0.54;}.cls-2{fill:#ff5722;}</style></defs><title>icon</title><g id="Layer_25" data-name="Layer 25"><path class="cls-2" d="M21.81,22.43l.62.55.37.35c1.51,1.42,4,3.79,5.66,2.17.54-.54,1-1.51.06-3a18.11,18.11,0,0,0-2.58-3A13.15,13.15,0,0,1,23,14.89c-.92-2.14-1.74-3.6-4.72-4.24a5.78,5.78,0,1,0-6.45-.18C8,11,7.09,12.52,6.07,14.89a13.15,13.15,0,0,1-2.95,4.59,18.11,18.11,0,0,0-2.58,3c-.93,1.53-.48,2.5.06,3,1.62,1.62,4.15-.75,5.66-2.17L6.63,23l.62-.55a19.23,19.23,0,0,0,2.11-2.05c-.11,2-.56,2.48-2.33,4.25-.66.66-1.32,1.24-1.94,1.78-1.82,1.6-3.39,3-3.39,5.1,0,3.1,1.93,3.21,12.23,3.21h1.19c10.31,0,12.24-.12,12.24-3.21,0-2.11-1.57-3.49-3.39-5.1-.62-.54-1.28-1.12-1.94-1.78-1.77-1.77-2.21-2.21-2.33-4.25A19.23,19.23,0,0,0,21.81,22.43ZM10.67,5.78a4.5,4.5,0,1,1,4.5,4.5A4.5,4.5,0,0,1,10.67,5.78ZM21.12,25.53c.69.69,1.38,1.3,2,1.84,1.72,1.51,3,2.6,3,4.13s-.46,1.92-11.54,1.93h-.63A7.47,7.47,0,0,1,11,33c-.18-.08-.61-.29-.61-.55,0-.86,2.92-2.88,8.58-2.88a.64.64,0,1,0,0-1.29c-5.9,0-9.87,2.16-9.87,4.17a1.6,1.6,0,0,0,.32.94C3.29,33.29,3,32.88,3,31.51c0-1.53,1.24-2.62,3-4.13.61-.54,1.31-1.15,2-1.84,2.66-2.66,2.74-2.88,2.74-7.87v-.31a.64.64,0,0,0-1.29,0c0,1.49-1.73,3-3,4.11L5.76,22l-.38.36c-.94.88-3.13,2.94-3.87,2.2-.17-.17-.48-.48.13-1.46A17.22,17.22,0,0,1,4,20.39a14.46,14.46,0,0,0,3.22-5c1-2.38,1.63-3.73,7.28-3.83,5.65.09,6.25,1.44,7.28,3.83a14.46,14.46,0,0,0,3.22,5,17.22,17.22,0,0,1,2.39,2.73c.6,1,.29,1.29.13,1.46-.74.74-2.93-1.32-3.87-2.2L23.29,22l-.64-.57c-1.26-1.1-3-2.62-3-4.11a.64.64,0,0,0-1.29,0v.31C18.38,22.65,18.45,22.87,21.12,25.53Z"/></g></svg>