<svg xmlns="http://www.w3.org/2000/svg" viewBox="0 0 37.36 37.35"><defs><style>.cls-1{opacity:0.54;}.cls-2{fill:#ff5722;}</style></defs><title>icon</title><g id="Layer_25" data-name="Layer 25"><path class="cls-2" d="M14.88,13.85l-.69,4.08a.64.64,0,0,0,.63.75.65.65,0,0,0,.3-.07l3.66-1.93,3.66,1.92a.64.64,0,0,0,.93-.68l-.7-4.08,3-2.89a.64.64,0,0,0-.36-1.1l-4.09-.59L19.34,5.56a.64.64,0,0,0-.58-.36h0a.64.64,0,0,0-.58.36L16.36,9.27l-4.09.6a.64.64,0,0,0-.36,1.1Zm2-3.36a.64.64,0,0,0,.48-.35l1.4-2.85,1.41,2.84a.64.64,0,0,0,.48.35l3.14.45-2.27,2.22a.64.64,0,0,0-.18.57l.54,3.12-2.81-1.47a.65.65,0,0,0-.6,0l-2.8,1.48.53-3.13a.64.64,0,0,0-.19-.57L13.74,11Z"/><path class="cls-2" d="M37.35,3.57a.64.64,0,0,0-.64-.73H29.58V.64A.64.64,0,0,0,28.94,0H8.35a.64.64,0,0,0-.64.64v2.2H.64A.64.64,0,0,0,0,3.57c.06.42,1.51,9.95,7.7,10.58v3a10.06,10.06,0,0,0,10,10H18v8.89H8.35a.64.64,0,0,0,0,1.29H28.94a.64.64,0,0,0,0-1.29H19.29V27.18h.24a10.06,10.06,0,0,0,10-10v-3C35.84,13.59,37.29,4,37.35,3.57ZM1.41,4.12h6.3v8.76C3.49,12.32,1.86,6.25,1.41,4.12Zm26.88,13a8.77,8.77,0,0,1-8.76,8.76H17.76A8.77,8.77,0,0,1,9,17.13V1.29H28.3Zm1.35-4.24V4.12h6.3C35.51,6.25,33.88,12.32,29.65,12.89Z"/></g></svg>