<svg xmlns="http://www.w3.org/2000/svg" viewBox="0 0 40.88 37.16"><defs><style>.cls-1{opacity:0.54;}.cls-2{fill:#ff5722;}</style></defs><title>icon</title><g id="Layer_25" data-name="Layer 25"><path class="cls-2" d="M39.25,16.87h0l-1.3-.24a12.15,12.15,0,0,0-3.68-4.76s0,0,0,0V6.93A1.32,1.32,0,0,0,32,6L29,9a22.39,22.39,0,0,0-3.38-.93,5,5,0,0,0,1-3A5.05,5.05,0,1,0,17.47,7.9c-5.6.85-10.09,3.56-12.32,7.16a3,3,0,0,1-1.07-1h0L4.27,14a3.49,3.49,0,0,0,2-1.91A1.45,1.45,0,0,0,6,10.75a1.55,1.55,0,0,0-1.28-.68,2.18,2.18,0,0,0-2,1.71,3.34,3.34,0,0,0,.08,1.6H2.72a2.07,2.07,0,0,1-1.89-1,.4.4,0,0,0-.36-.22.49.49,0,0,0-.41.24.41.41,0,0,0,0,.42,3,3,0,0,0,2.67,1.43l.42,0A4.22,4.22,0,0,0,4.71,15.8a9.69,9.69,0,0,0-1.12,4.48A25.38,25.38,0,0,0,4,24.52c.55,3.16,1.82,12.05,1.83,12.14a.58.58,0,0,0,.92.39l2.32-1.7,2.42,1.71a.58.58,0,0,0,.34.11.57.57,0,0,0,.25-.06.58.58,0,0,0,.33-.48l.41-5.19a23,23,0,0,0,8.24,1.51,23.82,23.82,0,0,0,5-.54l.4,4.23a.58.58,0,0,0,.92.42l2.44-1.78L32.16,37a.58.58,0,0,0,.94-.42l.6-7.56a12.68,12.68,0,0,0,4.06-4.89l1.38-.27a2,2,0,0,0,1.75-2.1V19A1.94,1.94,0,0,0,39.25,16.87ZM3.71,13.23v0a.79.79,0,0,1,0-.11A1.71,1.71,0,0,1,4,11.34,1,1,0,0,1,4.66,11a.74.74,0,0,1,.68.41.82.82,0,0,1-.21.88A3.14,3.14,0,0,1,3.71,13.23Zm29.12-6.4a.15.15,0,0,1,.26.11V11a18.2,18.2,0,0,0-2.87-1.55ZM21.63,1.17a3.89,3.89,0,1,1-3.89,3.89A3.89,3.89,0,0,1,21.63,1.17ZM39.71,21.8c0,.55-.31.94-.69.95l-1.79.33a.58.58,0,0,0-.43.35,11.47,11.47,0,0,1-4,4.86h0a.55.55,0,0,0-.11.12l0,.05a1.45,1.45,0,0,0-.07.22v0L32,35.46l-1.78-1.38a.58.58,0,0,0-.7,0l-2,1.44-.37-3.86v0s0,0,0,0a.55.55,0,0,0,0-.07.58.58,0,0,0,0-.1L27,31.31,27,31.23l-.1-.05-.1,0h-.27a22.68,22.68,0,0,1-13.92-1.05l-.08,0-.11,0h-.12l-.13,0,0,0a.56.56,0,0,0-.15.09l0,0a.56.56,0,0,0-.1.14h0a.56.56,0,0,0,0,.09.57.57,0,0,0,0,.09l-.39,4.94L9.44,34.15a.58.58,0,0,0-.68,0L6.88,35.54c-.35-2.4-1.25-8.66-1.7-11.21a24.26,24.26,0,0,1-.42-4c0-5.64,5.73-10.41,13.64-11.34h0a4.95,4.95,0,0,0,6.24.13C30.62,10,35.44,13.25,37,17.35a.58.58,0,0,0,.44.37l1.73.31c.28,0,.58.39.58.94Z"/><path class="cls-2" d="M21.72,7.92a2.78,2.78,0,1,0-2.79-2.78A2.79,2.79,0,0,0,21.72,7.92Zm0-4.4A1.62,1.62,0,1,1,20.1,5.14,1.62,1.62,0,0,1,21.72,3.52Z"/><path class="cls-2" d="M28.36,12.17A24.32,24.32,0,0,0,21.57,11a15.64,15.64,0,0,0-6.75,1.17.58.58,0,0,0-.31.52v2.21a.58.58,0,0,0,.85.52,15.09,15.09,0,0,1,6.21-1A23.39,23.39,0,0,1,28,15.49a.59.59,0,0,0,.53-.08.58.58,0,0,0,.24-.47V12.73A.58.58,0,0,0,28.36,12.17Zm-.77,2a23.61,23.61,0,0,0-6-.9,18.65,18.65,0,0,0-5.9.83v-1a16.53,16.53,0,0,1,5.9-.91,23.12,23.12,0,0,1,6,1Z"/><path class="cls-2" d="M33.08,16h0a1.81,1.81,0,0,0-1.63,1.79.38.38,0,0,0,.09.3.42.42,0,0,0,.32.13.47.47,0,0,0,.48-.42c0-.45.33-.92.77-.92l.16,0c.47.11.64.62.7,1a.36.36,0,0,0,.37.33.52.52,0,0,0,.38-.18.46.46,0,0,0,.11-.37A1.85,1.85,0,0,0,33.08,16Z"/></g></svg>