<svg xmlns="http://www.w3.org/2000/svg" viewBox="0 0 30.7 38.49"><defs><style>.cls-1{opacity:0.54;}.cls-2{fill:#ff5722;}</style></defs><title>icon</title><g id="Layer_25" data-name="Layer 25"><path class="cls-2" d="M25.77,21.28c-.45-1.28-1-2.48-1.5-3.64-1-2.28-2-4.43-2-6.62a23,23,0,0,1,.4-3.79c.38-2.34.73-4.56-.46-6A4.56,4.56,0,0,0,18.54,0a4.56,4.56,0,0,0-3.67,1.28c-1.19,1.4-.84,3.61-.46,6A23,23,0,0,1,14.8,11a16.67,16.67,0,0,1-1.9,6.4,11.46,11.46,0,0,1-.85-3.89,23,23,0,0,1,.4-3.78c.38-2.34.73-4.56-.46-6A4.56,4.56,0,0,0,8.32,2.51,4.56,4.56,0,0,0,4.64,3.79c-1.19,1.4-.84,3.61-.46,6a22.91,22.91,0,0,1,.4,3.79c0,2.2-1,4.35-2,6.63C1.37,22.86,0,25.93,0,29.62c0,7.72,5.21,8.88,8.32,8.88,2.95,0,5.22-1,6.63-2.87A9.11,9.11,0,1,0,25.77,21.28ZM16,8.94h5.16A16,16,0,0,0,21,11c0,.16,0,.32,0,.48h-5c0-.16,0-.32,0-.48A16,16,0,0,0,16,8.94Zm-.11-6.83a3.43,3.43,0,0,1,2.7-.82,3.43,3.43,0,0,1,2.7.82c.81.95.5,2.88.17,4.92l-.1.63H15.77L15.67,7C15.35,5,15,3.06,15.84,2.11ZM14,18.17a24.76,24.76,0,0,0,1.93-5.37h5.26a24.75,24.75,0,0,0,1.93,5.37c.36.8.71,1.62,1,2.46a9.07,9.07,0,0,0-8.94,2.24c-.37-.93-.75-1.84-1.14-2.71l-.48-1.08ZM5.74,11.45H10.9a16,16,0,0,0-.13,2.09c0,.16,0,.32,0,.48h-5c0-.16,0-.32,0-.48A16.06,16.06,0,0,0,5.74,11.45ZM5.62,4.62a3.43,3.43,0,0,1,2.7-.82,3.43,3.43,0,0,1,2.7.82c.81.95.5,2.88.17,4.92l-.1.63H5.56l-.1-.63C5.13,7.49,4.82,5.57,5.62,4.62Zm2.7,32.59c-3.21,0-7-1.32-7-7.59,0-3.42,1.26-6.22,2.47-8.94a24.72,24.72,0,0,0,1.93-5.37h5.26a19.23,19.23,0,0,0,1.32,4v0l.6,1.36c.47,1.06,1,2.15,1.37,3.29a9.06,9.06,0,0,0-.15,10.61A6.69,6.69,0,0,1,8.32,37.21Zm13.26,0a7.84,7.84,0,1,1,7.84-7.84A7.84,7.84,0,0,1,21.58,37.21Z"/><circle class="cls-2" cx="20.7" cy="26.02" r="0.72"/><circle class="cls-2" cx="25.05" cy="24.57" r="0.72"/><circle class="cls-2" cx="23.6" cy="27.46" r="0.72" transform="translate(-12.5 24.73) rotate(-45)"/></g></svg>