<svg xmlns="http://www.w3.org/2000/svg" viewBox="0 0 35 37.51"><defs><style>.cls-1{opacity:0.54;}.cls-2{fill:#ff5722;}</style></defs><title>icon</title><g id="Layer_25" data-name="Layer 25"><path class="cls-2" d="M33.69,17.11,18.13,9.27V6.39a3.23,3.23,0,1,0-3.89-3.15.65.65,0,0,0,1.29,0,2,2,0,1,1,3.9,0,1.91,1.91,0,0,1-2,1.92.65.65,0,0,0-.65.65V9.27L1.37,17.06a2.5,2.5,0,0,0-.62,4,2.18,2.18,0,0,0,2.51.39L9,18.55,9,23.29H5.72a.65.65,0,0,0-.65.65V36.86a.65.65,0,0,0,.65.65H29.07a.65.65,0,0,0,.65-.65V23.94a.65.65,0,0,0-.65-.65H25.68l0-4.85,5.83,2.94a2.39,2.39,0,0,0,2.15-4.27ZM17.48,10.39l7,3.51v2.45L17.77,13a.65.65,0,0,0-.58,0l-6.84,3.45,0-2.47ZM2.67,20.31a.89.89,0,0,1-1-.16A1.2,1.2,0,0,1,2,18.21l7.13-3.59,0,2.47ZM28.43,36.22H6.37V24.58H28.43Zm-4-12.93H10.26l.08-5.4,7.15-3.6,6.94,3.5Zm9-3.28a1.09,1.09,0,0,1-1.28.22L25.71,17V14.54l7.38,3.72A1.1,1.1,0,0,1,33.4,20Z"/></g></svg>