<svg xmlns="http://www.w3.org/2000/svg" viewBox="0 0 36.25 33.36"><defs><style>.cls-1{opacity:0.54;}.cls-2{fill:#ff5722;}</style></defs><title>icon</title><g id="Layer_25" data-name="Layer 25"><path class="cls-2" d="M13.88,30.14c1.54,1.17,2.88,2.19,3.84,3.06a.65.65,0,0,0,.86,0c1-.84,2.24-1.82,3.73-2.95,5.88-4.46,13.94-10.57,13.94-17.69,0-7.5-4.35-11.29-8.07-12.25a9.17,9.17,0,0,0-10,3.89A9.19,9.19,0,0,0,8.1.31C4.37,1.27,0,5.06,0,12.56,0,19.57,8,25.68,13.88,30.14ZM8.43,1.56a8.12,8.12,0,0,1,2-.26,8.15,8.15,0,0,1,7.13,4.44.65.65,0,0,0,.56.33h0a.65.65,0,0,0,.57-.33,8,8,0,0,1,9.14-4.18c3.28.85,7.1,4.24,7.1,11C35,19,27.2,24.92,21.53,29.22c-1.3,1-2.45,1.86-3.37,2.64-.95-.81-2.14-1.72-3.5-2.75-3.48-2.65-7.74-5.9-10.51-9.49H7.71a.65.65,0,0,0,.63-.52L10,10.78l1.57,8.37a.65.65,0,0,0,.63.53h2.13l3.26,4.85a.65.65,0,0,0,.54.29h.11a.65.65,0,0,0,.52-.48l3-11.78,2.75,6.68a.65.65,0,0,0,.6.4H29.6a.65.65,0,0,0,0-1.29h-4l-3.33-8.08a.65.65,0,0,0-1.22.09L17.89,22.61l-2.65-3.93a.65.65,0,0,0-.54-.29H12.76L10.68,7.28A.65.65,0,0,0,10,6.75h0a.65.65,0,0,0-.63.52l-2.23,11H3.24a10.71,10.71,0,0,1-1.94-5.77C1.29,5.8,5.14,2.41,8.43,1.56Z"/></g></svg>