<svg xmlns="http://www.w3.org/2000/svg" viewBox="0 0 34.9 37.46"><defs><style>.cls-1{opacity:0.54;}.cls-2{fill:#ff5722;}</style></defs><title>icon</title><g id="Layer_25" data-name="Layer 25"><path class="cls-2" d="M13.59,37.46H30.43a.65.65,0,0,0,.65-.65V18.74a.65.65,0,0,0-.19-.46L17.95,5.38a.65.65,0,0,0-.91,0L4.1,18.29a.65.65,0,0,0-.19.46V36.81a.65.65,0,0,0,.65.65Zm.65-1.29V23.28h6.51V36.16ZM5.2,19,17.49,6.75,29.79,19V36.16H22V22.63A.65.65,0,0,0,21.4,22h-7.8a.65.65,0,0,0-.65.65V36.16H5.2Z"/><path class="cls-2" d="M17,.19.19,17a.65.65,0,1,0,.91.91L17.45,1.56,33.8,17.91a.65.65,0,0,0,.91-.91L17.91.19A.65.65,0,0,0,17,.19Z"/></g></svg>