<svg xmlns="http://www.w3.org/2000/svg" viewBox="0 0 27.07 37"><defs><style>.cls-1{opacity:0.54;}.cls-2{fill:#ff5722;}</style></defs><title>icon</title><g id="Layer_25" data-name="Layer 25"><path class="cls-2" d="M27.05,13.19a.58.58,0,0,0,0-.08.64.64,0,0,0-.16-.29h0L14.09.18a.64.64,0,0,0-.89,0L.19,12.82h0a.63.63,0,0,0-.16.29.57.57,0,0,0,0,.08.58.58,0,0,0,0,.09V36.36A.64.64,0,0,0,.64,37H26.43a.64.64,0,0,0,.64-.64V13.28A.62.62,0,0,0,27.05,13.19ZM13.64,1.53,24.88,12.64H2.21ZM25.79,35.72H1.28V13.92H25.79Z"/><path class="cls-2" d="M11.62,30.46c.59.45,1.12.85,1.5,1.19a.64.64,0,0,0,.85,0c.38-.33.89-.72,1.46-1.15,2.4-1.82,5.68-4.31,5.68-7.33,0-3.2-1.88-4.82-3.49-5.23a4,4,0,0,0-4.07,1.29A4,4,0,0,0,9.46,18C7.85,18.37,6,20,6,23.18,6,26.16,9.23,28.65,11.62,30.46ZM9.78,19.19a2.82,2.82,0,0,1,.7-.09A2.87,2.87,0,0,1,13,20.66a.64.64,0,0,0,1.12,0,2.81,2.81,0,0,1,3.2-1.47c1.17.3,2.53,1.53,2.53,4s-3.12,4.75-5.18,6.31c-.41.31-.78.59-1.11.85-.34-.27-.73-.57-1.16-.9-2.05-1.56-5.16-3.92-5.16-6.27S8.61,19.49,9.78,19.19Z"/></g></svg>