<svg xmlns="http://www.w3.org/2000/svg" viewBox="0 0 32.28 28.26"><defs><style>.cls-1{opacity:0.54;}.cls-2{fill:#ff5722;}</style></defs><title>icon</title><g id="Layer_25" data-name="Layer 25"><path class="cls-2" d="M32.28,11.3V7c0-3.93-7.09-7-16.14-7S0,3.08,0,7v4.3c0,3.83,6.76,6.84,15.49,7v3.79H11.27c-.17,0-.53-.37-.77-.62a2.5,2.5,0,0,0-1.7-1h0a2.28,2.28,0,0,0-2.27,2.28,1.7,1.7,0,0,0,.67,1.35c.2.18.2.2.2.27s0,.09-.2.27A1.7,1.7,0,0,0,6.53,26,2.27,2.27,0,0,0,8.8,28.26h0a2.49,2.49,0,0,0,1.7-1c.24-.25.59-.62.76-.62h0c2.46,0,7.29,0,9.75,0h0c.17,0,.53.37.76.62a2.49,2.49,0,0,0,1.7,1h0A2.28,2.28,0,0,0,25.76,26a1.7,1.7,0,0,0-.67-1.35c-.2-.18-.2-.19-.2-.27s0-.09.2-.27a1.7,1.7,0,0,0,.67-1.36,2.28,2.28,0,0,0-2.28-2.27h0a2.5,2.5,0,0,0-1.7,1c-.24.25-.59.62-.77.62H16.79V18.29C25.52,18.15,32.28,15.13,32.28,11.3ZM21,23.37a2.5,2.5,0,0,0,1.7-1c.24-.25.59-.62.77-.62h0a1,1,0,0,1,1,1c0,.17,0,.22-.24.4a1.53,1.53,0,0,0,0,2.47c.2.18.24.22.24.4a1,1,0,0,1-1,1c-.17,0-.53-.37-.77-.62a2.46,2.46,0,0,0-1.71-1c-2.46,0-7.27,0-9.73,0h0a2.49,2.49,0,0,0-1.7,1C9.33,26.6,9,27,8.8,27a1,1,0,0,1-.69-.29,1,1,0,0,1-.29-.7c0-.17,0-.22.24-.4a1.53,1.53,0,0,0,0-2.47c-.2-.18-.24-.22-.24-.4a1,1,0,0,1,1-1c.17,0,.53.37.77.62a2.5,2.5,0,0,0,1.7,1H21ZM16.14,1.29C25,1.29,31,4.24,31,7a2.31,2.31,0,0,1-.35,1.16C28,5.8,22.45,4.3,16.14,4.3S4.29,5.8,1.64,8.16A2.3,2.3,0,0,1,1.29,7C1.29,4.24,7.26,1.29,16.14,1.29ZM29.81,9.15c-2.15,2-7.11,3.56-13.67,3.56S4.62,11.1,2.47,9.15C4.83,7,10.19,5.59,16.14,5.59S27.45,7,29.81,9.15ZM1.29,11.3V9.79C3.73,12.29,9.39,14,16.14,14S28.55,12.29,31,9.79V11.3C31,14.06,25,17,16.14,17S1.29,14.06,1.29,11.3Z"/></g></svg>