<svg xmlns="http://www.w3.org/2000/svg" viewBox="0 0 36.03 36.14"><defs><style>.cls-1{opacity:0.54;}.cls-2{fill:#ff5722;}</style></defs><title>icon</title><g id="Layer_25" data-name="Layer 25"><path class="cls-2" d="M8.44,35.95a.65.65,0,0,0,.91,0l3.21-3.21L14.81,35a.65.65,0,0,0,.91,0l3.67-3.67a.65.65,0,0,0,0-.91l-5-5,11-11,5,5a.65.65,0,0,0,.91,0l3.67-3.67a.65.65,0,0,0,0-.91l-2.31-2.31,3.21-3.21a.65.65,0,0,0,0-.91L27.59.19a.65.65,0,0,0-.91,0L23.47,3.4,21.22,1.14a.65.65,0,0,0-.91,0L16.64,4.81a.65.65,0,0,0,0,.91l5,5-11,11-5-5a.65.65,0,0,0-.91,0L1.09,20.36a.65.65,0,0,0,0,.91L3.4,23.57.19,26.78a.65.65,0,0,0,0,.91ZM24.38,4.31l2.75-2.75L34.47,8.9l-2.75,2.75L29.84,9.77ZM20.76,2.52l8.2,8.2L31.26,13h0l2.3,2.3-2.75,2.75-5-5h0L23,10.29l-5-5Zm1.82,9.15,1.88,1.88-11,11-1.88-1.88ZM5.21,18.06l5,5,2.8,2.8h0l5,5-2.75,2.75-8.2-8.2L4.77,23.12h0l-2.3-2.3Zm-.9,6.43,1.88,1.88,5.46,5.46L8.9,34.58,1.56,27.24Z"/></g></svg>