<svg xmlns="http://www.w3.org/2000/svg" viewBox="0 0 35.88 30.28"><defs><style>.cls-1{opacity:0.54;}.cls-2{fill:#ff5722;}</style></defs><title>icon</title><g id="Layer_25" data-name="Layer 25"><path class="cls-2" d="M24.63,24.59a1.88,1.88,0,0,0-.92-1.25l-4.77-2.82-.12-.05a2,2,0,0,0-.9-.18,2.18,2.18,0,0,0-1.5.59l-1.32,1.34-.13,0a3.16,3.16,0,0,1-.72-.3A10.88,10.88,0,0,1,12.87,21,15.78,15.78,0,0,1,11,19.31a15.53,15.53,0,0,1-1.68-1.88,10.28,10.28,0,0,1-.86-1.36,4.22,4.22,0,0,1-.35-.87l1.12-1.12A2.18,2.18,0,0,0,9.79,13a1.83,1.83,0,0,0-.18-1.3L6.93,6.59A2.34,2.34,0,0,0,6.35,6a1.7,1.7,0,0,0-2.2.22L.88,9.45a2.5,2.5,0,0,0-.57.78,3.06,3.06,0,0,0-.29,1s0,.2,0,.46A6.59,6.59,0,0,0,.11,13,13.32,13.32,0,0,0,.6,15a16.32,16.32,0,0,0,1.08,2.5,24,24,0,0,0,1.88,3A27.85,27.85,0,0,0,6.5,23.79a26.49,26.49,0,0,0,4.21,3.55,22.29,22.29,0,0,0,3.56,1.95,12.19,12.19,0,0,0,2.72.83,11.77,11.77,0,0,0,1.62.17l.39,0-.06-.64.24.63a3,3,0,0,0,.89-.28,2.44,2.44,0,0,0,.76-.54l3.29-3.27a1.77,1.77,0,0,0,.53-1.53Zm-1.44.66-3.31,3.29a1.23,1.23,0,0,1-.38.27,2.4,2.4,0,0,1-.42.16l-.21,0a6,6,0,0,1-1.68-.14,11,11,0,0,1-2.42-.75,21.05,21.05,0,0,1-3.34-1.84,25.27,25.27,0,0,1-4-3.38,26.59,26.59,0,0,1-2.8-3.18,22.9,22.9,0,0,1-1.78-2.8,15,15,0,0,1-1-2.3,12.13,12.13,0,0,1-.45-1.76,5.39,5.39,0,0,1-.09-1.09c0-.28,0-.45,0-.45h0a1.79,1.79,0,0,1,.16-.51,1.27,1.27,0,0,1,.29-.4L5.06,7.1c.25-.26.4-.19.52-.1a1.06,1.06,0,0,1,.24.24l2.65,5a.56.56,0,0,1,.05.42.9.9,0,0,1-.24.47L7.07,14.37a1,1,0,0,0-.24.41,1.25,1.25,0,0,0-.06.51,5.06,5.06,0,0,0,.5,1.36,11.35,11.35,0,0,0,1,1.54,16.7,16.7,0,0,0,1.82,2,16.94,16.94,0,0,0,2.06,1.84,12.05,12.05,0,0,0,1.53,1,4.31,4.31,0,0,0,1.06.42l.44.07a1.14,1.14,0,0,0,.37-.07,1,1,0,0,0,.42-.25l1.38-1.4a1.09,1.09,0,0,1,.94-.18l.11.05L23,24.45a.62.62,0,0,1,.32.37A.48.48,0,0,1,23.19,25.25Z"/><path class="cls-2" d="M35.85.47s0,0,0,0h0a.63.63,0,0,0-.21-.27l-.06,0A.63.63,0,0,0,35.24,0H15.69a.63.63,0,0,0-.34.11l-.06,0a.63.63,0,0,0-.21.27h0s0,0,0,0a.63.63,0,0,0,0,.17V14.89a.65.65,0,0,0,.65.65H35.24a.65.65,0,0,0,.65-.65V.65A.63.63,0,0,0,35.85.47Zm-2.47.82L25.46,7.55,17.55,1.29Zm-17,13V2l8.73,6.9a.65.65,0,0,0,.8,0L34.59,2V14.25Z"/></g></svg>