<svg id="Layer_1" data-name="Layer 1" xmlns="http://www.w3.org/2000/svg" viewBox="0 0 19.63 18.98"><defs><style>.cls-1{opacity:0.54;}.cls-2{fill:#c5cae9;}</style></defs><title>icons</title><path class="cls-2" d="M18.63,14v3a2,2,0,0,1-2,2h-14a2,2,0,0,1-2-2V3.92a2,2,0,0,1,2-2h14a2,2,0,0,1,2,2V6h-9s-.87-.16-.87.94v6c0,1.1.88,1.06.88,1.06Zm-9-1.06h10v-6h-10Zm3.15-2a1,1,0,1,1,1-1A1,1,0,0,1,12.77,10.86ZM15.75,0H2.63a2,2,0,0,0-2,2V3a2,2,0,0,1,2-2H15.75a2.16,2.16,0,0,1,2,1.31V2A2,2,0,0,0,15.75,0Z"/></svg>