<svg xmlns="http://www.w3.org/2000/svg" viewBox="0 0 32.08 32.17"><defs><style>.cls-1{opacity:0.54;}.cls-2{fill:#ff5722;}</style></defs><title>icon</title><g id="Layer_25" data-name="Layer 25"><path class="cls-2" d="M21.8,19.78a.64.64,0,0,0-.63-.54H10.91a.64.64,0,0,0-.63.54l-.8,4.8a3.17,3.17,0,0,0,3.13,3.69h6.84a3.17,3.17,0,0,0,3.13-3.69Zm-.9,6.55a1.88,1.88,0,0,1-1.44.67H12.62a1.89,1.89,0,0,1-1.86-2.2l.71-4.27h9.16l.7,4.27A1.88,1.88,0,0,1,20.9,26.32Z"/><path class="cls-2" d="M32,23.14l-.82-7.21a.64.64,0,0,0-.64-.57H27.35l-.07-1.26a3.18,3.18,0,0,0,.61-2.3l-1-7.4a.64.64,0,0,0-.64-.56h-.6v-2A2.11,2.11,0,0,0,23.39,0H21.57a2.11,2.11,0,0,0-2.31,1.9v2H12.83v-2A2.11,2.11,0,0,0,10.52,0H8.7A2.11,2.11,0,0,0,6.39,1.9v2h-.7a.64.64,0,0,0-.64.56l-.91,7.42a3.19,3.19,0,0,0,.7,2.4l-.07,1.13H1.5a.64.64,0,0,0-.64.57L0,23.14a5.42,5.42,0,0,0,1.14,4.13,2.8,2.8,0,0,0,2.08,1H4.43a5.76,5.76,0,0,0,5.46,3.9h12.3a5.75,5.75,0,0,0,5.45-3.9h1.17a2.8,2.8,0,0,0,2.08-1A5.42,5.42,0,0,0,32,23.14ZM20.55,1.9c0-.29.44-.61,1-.61h1.82c.58,0,1,.32,1,.61v2H20.55ZM7.67,1.9c0-.29.44-.61,1-.61h1.82c.59,0,1,.32,1,.61v2H7.67ZM5.42,12l.84-6.85H25.73L26.61,12a1.91,1.91,0,0,1-.46,1.51h0a1.91,1.91,0,0,1-1.42.64H7.32A1.91,1.91,0,0,1,5.42,12ZM3.27,27a1.55,1.55,0,0,1-1.12-.58,4.11,4.11,0,0,1-.83-3.13l.76-6.64H4.7L4.13,26a5.82,5.82,0,0,0,0,.94Zm22.19,2.49a4.45,4.45,0,0,1-3.26,1.41H9.89a4.49,4.49,0,0,1-4.48-4.76l.67-11a3.19,3.19,0,0,0,1.24.26h17.4A3.19,3.19,0,0,0,26,15.12l.63,11A4.45,4.45,0,0,1,25.45,29.48Zm4.48-3.06a1.55,1.55,0,0,1-1.12.57h-.9a5.82,5.82,0,0,0,0-.92l-.54-9.42H30l.75,6.64A4.11,4.11,0,0,1,29.94,26.41Z"/></g></svg>