<svg xmlns="http://www.w3.org/2000/svg" viewBox="0 0 29.68 31.23"><defs><style>.cls-1{opacity:0.54;}.cls-2{fill:#ff5722;}</style></defs><title>icon</title><g id="Layer_25" data-name="Layer 25"><path class="cls-2" d="M0,6.29v5.26A2,2,0,0,0,1.49,13.5V26.65a4.58,4.58,0,0,0,4.58,4.58H23.76a4.58,4.58,0,0,0,4.58-4.58V13.45a2,2,0,0,0,1.35-1.9V6.29a2,2,0,0,0-2-2H24.23V2.1A2.09,2.09,0,0,0,21,.32L14.88,4.13,8.72.32A2.09,2.09,0,0,0,5.52,2.1V4.26H2A2,2,0,0,0,0,6.29ZM2.79,26.65V13.58H14.27V29.94H6.07A3.29,3.29,0,0,1,2.79,26.65Zm24.25,0a3.29,3.29,0,0,1-3.28,3.28h-8.2V13.58H27ZM21.72,1.42a.8.8,0,0,1,1.22.68V4.26H17.11ZM6.82,2.1A.8.8,0,0,1,8,1.42l4.6,2.85H6.82ZM1.29,6.29A.74.74,0,0,1,2,5.55H27.65a.74.74,0,0,1,.74.74v5.26a.74.74,0,0,1-.74.74H2a.74.74,0,0,1-.74-.74Z"/></g></svg>