<?xml version="1.0" encoding="iso-8859-1"?>
<!-- Generator: Adobe Illustrator 16.0.0, SVG Export Plug-In . SVG Version: 6.00 Build 0)  -->
<!DOCTYPE svg PUBLIC "-//W3C//DTD SVG 1.1//EN" "http://www.w3.org/Graphics/SVG/1.1/DTD/svg11.dtd">
<svg xmlns="http://www.w3.org/2000/svg" xmlns:xlink="http://www.w3.org/1999/xlink" version="1.1" id="Capa_1" x="0px" y="0px" width="512px" height="512px" viewBox="0 0 45.968 45.968" style="enable-background:new 0 0 45.968 45.968;" xml:space="preserve">
<g>
	<g>
		<path d="M45.968,4.969c0-2.366-1.92-4.299-4.286-4.299H15.43c-1.48,0-2.856,0.776-3.639,2.034l-11.143,17.9    c-0.859,1.381-0.865,3.132-0.014,4.517l11.159,18.135c0.781,1.27,2.163,2.042,3.651,2.042h26.238c1.137,0,2.228-0.452,3.03-1.257    c0.804-0.803,1.256-1.899,1.256-3.038V4.969z M37.33,26.761c1.571,1.569,1.571,4.118,0,5.688    c-0.784,0.785-1.812,1.179-2.843,1.179s-2.062-0.394-2.845-1.179l-3.767-3.767l-3.765,3.767c-0.784,0.785-1.815,1.179-2.844,1.179    c-1.029,0-2.059-0.394-2.845-1.179c-1.57-1.57-1.57-4.119,0-5.688l3.766-3.767l-3.766-3.764c-1.57-1.569-1.57-4.117,0-5.687    c1.57-1.572,4.119-1.572,5.688,0l3.765,3.765l3.767-3.765c1.568-1.572,4.118-1.572,5.688,0c1.571,1.569,1.571,4.117,0,5.687    l-3.765,3.764L37.33,26.761z" fill="#f00e0e"/>
	</g>
</g>
<g>
</g>
<g>
</g>
<g>
</g>
<g>
</g>
<g>
</g>
<g>
</g>
<g>
</g>
<g>
</g>
<g>
</g>
<g>
</g>
<g>
</g>
<g>
</g>
<g>
</g>
<g>
</g>
<g>
</g>
</svg>
