<svg xmlns="http://www.w3.org/2000/svg" viewBox="0 0 39.84 38.57"><defs><style>.cls-1{opacity:0.54;}.cls-2{fill:#ff5722;}</style></defs><title>icon</title><g id="Layer_25" data-name="Layer 25"><path class="cls-2" d="M39.71,9.48l-4.45-6A3.68,3.68,0,0,0,31.6,0H13A3.68,3.68,0,0,0,9.33,3.67v8.61H3.67A3.68,3.68,0,0,0,0,16V28.33a3.67,3.67,0,0,0,3,3.61l.1,4.38a.64.64,0,0,0,1,.49l6-4.81h5.45a13.48,13.48,0,0,0,9,3.25,14.47,14.47,0,0,0,5.18-1l3,4a.64.64,0,0,0,.52.26.63.63,0,0,0,.2,0,.64.64,0,0,0,.44-.61V31.74s0,0,0-.05a8.9,8.9,0,0,0,2.83-6.36,8.68,8.68,0,0,0-2.66-6.6A3.65,3.65,0,0,0,35.27,16V10.5H39.2a.64.64,0,0,0,.52-1ZM4.32,31.34a.6.6,0,0,0,0-.14.65.65,0,0,0,0-.1A.64.64,0,0,0,4.18,31a.63.63,0,0,0-.06-.08A.65.65,0,0,0,4,30.82l-.08-.05a.64.64,0,0,0-.25-.05,2.39,2.39,0,0,1-2.39-2.39V16a2.39,2.39,0,0,1,2.39-2.39H9.33V16A3.68,3.68,0,0,0,13,19.71H24.66v8.61a2.39,2.39,0,0,1-2.39,2.39H10l-.08,0-.13,0-.12.06-.07,0L4.4,35Zm31.15-6a7.69,7.69,0,0,1-2.62,5.62.64.64,0,0,0-.18.64.62.62,0,0,0,0,.15V36l-2.1-2.84,0,0L30.41,33l-.11-.07-.11,0-.13,0H30l-.14,0h0a13.1,13.1,0,0,1-5.16,1,12.61,12.61,0,0,1-6.86-2h4.52a3.68,3.68,0,0,0,3.67-3.67V19.71H31.6A3.65,3.65,0,0,0,33,19.44,7.42,7.42,0,0,1,35.47,25.32ZM34.63,9.21a.64.64,0,0,0-.64.64V16a2.39,2.39,0,0,1-2.39,2.39H13A2.39,2.39,0,0,1,10.61,16V12.93h0V3.67A2.39,2.39,0,0,1,13,1.29H31.6A2.39,2.39,0,0,1,34,3.67a.64.64,0,0,0,.13.38l3.81,5.16Z"/></g></svg>