<svg xmlns="http://www.w3.org/2000/svg" viewBox="0 0 27.29 31.24"><defs><style>.cls-1{opacity:0.54;}.cls-2{fill:#ff5722;}</style></defs><title>icon</title><g id="Layer_25" data-name="Layer 25"><path class="cls-2" d="M13.64,29.7a1.71,1.71,0,0,1,1.07.45,5.32,5.32,0,0,0,3.53,1.08c1.89,0,4.36-3.35,6-6.49,2.33-4.35,4.12-10,2.18-12.94-3-4.56-7.43-4.89-10.64-3.69V1.43a.65.65,0,0,0-.65-.65H12.11a.65.65,0,0,0-.65.65V2.88C9.39.89,7.32-.08,5.33,0A6,6,0,0,0,1,2.24a.65.65,0,0,0-.1.57,6,6,0,0,0,3.3,3.58c2,.81,4.4.53,7.25-.84V8.12C8.25,6.93,3.87,7.25.82,11.81-1.12,14.72.68,20.41,3,24.75c1.68,3.14,4.15,6.49,6,6.49a5.33,5.33,0,0,0,3.53-1.08A1.71,1.71,0,0,1,13.64,29.7ZM4.72,5.2A4.71,4.71,0,0,1,2.27,2.75,4.7,4.7,0,0,1,5.4,1.3q2.7-.09,5.66,3C8.5,5.57,6.36,5.87,4.72,5.2Zm8-3.13h1.78V8.61a4,4,0,0,1-1.78.08ZM9,29.95c-.88,0-2.95-2.17-4.89-5.8C1.93,20,.38,14.81,1.9,12.53a7.46,7.46,0,0,1,9.92-2.85h0a3,3,0,0,0,1.54.37,6.91,6.91,0,0,0,2-.34l0,0,.06,0a7.46,7.46,0,0,1,9.92,2.85c1.52,2.28,0,7.48-2.24,11.61-1.94,3.63-4,5.81-4.89,5.81a4.05,4.05,0,0,1-2.79-.84,2.93,2.93,0,0,0-1.82-.69,2.93,2.93,0,0,0-1.82.69A4.05,4.05,0,0,1,9,29.95Z"/></g></svg>