<svg xmlns="http://www.w3.org/2000/svg" viewBox="0 0 31 29.84"><defs><style>.cls-1{opacity:0.54;}.cls-2{fill:#ff5722;}</style></defs><title>icon</title><g id="Layer_25" data-name="Layer 25"><path class="cls-2" d="M24.69,0H6A3.65,3.65,0,0,0,2.4,3.64V21.14A3.63,3.63,0,0,0,5,24.61v3.25a2,2,0,0,0,2,2H8.26a2,2,0,0,0,2-2V24.78h9v3.08a2,2,0,0,0,2,2h1.26a2,2,0,0,0,2-2V24.78h.19a3.65,3.65,0,0,0,3.64-3.64V3.64A3.65,3.65,0,0,0,24.69,0ZM9,27.86a.69.69,0,0,1-.69.69H7a.69.69,0,0,1-.69-.69V24.78H9Zm14.25,0a.69.69,0,0,1-.69.69H21.25a.69.69,0,0,1-.69-.69V24.78H23.2ZM27,21.14a2.35,2.35,0,0,1-2.35,2.35H6a2.35,2.35,0,0,1-2.35-2.35V3.64A2.35,2.35,0,0,1,6,1.29H24.69A2.35,2.35,0,0,1,27,3.64Z"/><path class="cls-2" d="M21.22,3.88H9.6A3.26,3.26,0,0,0,6.35,7.13V9.78A3.26,3.26,0,0,0,9.6,13H21.22a3.26,3.26,0,0,0,3.26-3.25V7.13A3.26,3.26,0,0,0,21.22,3.88Zm2,5.9a2,2,0,0,1-2,2H9.6a2,2,0,0,1-2-2V7.13a2,2,0,0,1,2-2H21.22a2,2,0,0,1,2,2Z"/><path class="cls-2" d="M30.35,5.28a.65.65,0,0,0-.65.65V11A.65.65,0,0,0,31,11V5.92A.65.65,0,0,0,30.35,5.28Z"/><path class="cls-2" d="M.65,5.28A.65.65,0,0,0,0,5.92V11a.65.65,0,1,0,1.29,0V5.92A.65.65,0,0,0,.65,5.28Z"/><path class="cls-2" d="M8.94,16.91a2.59,2.59,0,1,0,2.59,2.59A2.59,2.59,0,0,0,8.94,16.91Zm0,3.89a1.3,1.3,0,1,1,1.3-1.3A1.3,1.3,0,0,1,8.94,20.8Z"/><path class="cls-2" d="M21.88,16.91a2.59,2.59,0,1,0,2.59,2.59A2.59,2.59,0,0,0,21.88,16.91Zm0,3.89a1.3,1.3,0,1,1,1.3-1.3A1.3,1.3,0,0,1,21.88,20.8Z"/></g></svg>