<svg id="Layer_1" data-name="Layer 1" xmlns="http://www.w3.org/2000/svg" viewBox="0 0 19.17 22.06"><defs><style>.cls-1{opacity:0.54;}.cls-2{fill:#c5cae9;}.cls-3{fill:#ff5722;}</style></defs><title>icon</title><path class="cls-2" d="M7,20.07a2,2,0,0,0,4,0Zm8.87-4.19V10.06a6.87,6.87,0,0,0-5.29-6.69V2.65a1.59,1.59,0,0,0-3.18,0v.72a6.87,6.87,0,0,0-5.29,6.69v5.82L0,18v1.06H18V18Z"/><circle class="cls-3" cx="15.49" cy="3.97" r="3.01"/><path class="cls-2" d="M15.49,1.46A2.51,2.51,0,1,1,13,4a2.51,2.51,0,0,1,2.51-2.51m0-1A3.51,3.51,0,1,0,19,4,3.51,3.51,0,0,0,15.49.46Z"/></svg>